<svg xmlns="http://www.w3.org/2000/svg" viewBox="0 0 86.02 48.02"><defs><style>.cls-1{fill:#fff;}.cls-2{fill:#96bf0d;}</style></defs><title>iris_logo</title><g id="Слой_2" data-name="Слой 2"><g id="task-assigned"><path class="cls-1" d="M58.61,18H45.81v4.12H57.9q2.86,0,3.87,1t1,3.67v2.69q0,2.67-1,3.67t-3.84,1h-12q-2.92,0-3.92-1t-1-3.67v-.57L45,28.1v2.31H58.67v-4.5H46.61q-2.89,0-3.9-1t-1-3.64V19.1a5.36,5.36,0,0,1,1-3.67q1-1,3.9-1h11a6.08,6.08,0,0,1,3.87.93,4.52,4.52,0,0,1,1,3.35v.45l-3.92.88Z"/><path class="cls-1" d="M8.52,34.08V14.46H24.89a5.27,5.27,0,0,1,3.33.87,3.76,3.76,0,0,1,1,2.93v4.6a3.68,3.68,0,0,1-1,2.88,5,5,0,0,1-3.33.91H22.41l8.84,7.42h-6.4l-7.7-7.42H12.92v7.42ZM22.91,17.84h-10v5.48h10A2.81,2.81,0,0,0,24.51,23a1.64,1.64,0,0,0,.39-1.23V19.39a1.54,1.54,0,0,0-.39-1.21A2.69,2.69,0,0,0,22.91,17.84Z"/><polygon class="cls-1" points="4.9 14.52 0.53 14.4 0 34.01 4.39 34.13 4.9 14.52"/><polygon class="cls-1" points="37.16 14.46 32.79 14.46 32.79 34.08 37.19 34.08 37.16 14.46"/><circle class="cls-2" cx="65.63" cy="4.91" r="4.91"/><circle class="cls-2" cx="81.12" cy="24.01" r="4.91"/><circle class="cls-2" cx="73.37" cy="14.46" r="4.91"/><circle class="cls-2" cx="65.63" cy="43.11" r="4.91"/><circle class="cls-2" cx="73.37" cy="33.56" r="4.91"/></g></g></svg>